#N canvas 2954 592 585 300 12;
#N canvas 0 22 450 300 gemwin 0;
#X obj 132 136 gemwin;
#X obj 67 89 outlet;
#X obj 67 10 inlet;
#X obj 67 41 route create;
#X msg 67 70 set destroy;
#X msg 142 68 set create;
#X msg 198 112 destroy;
#X msg 132 112 create \, 1;
#X connect 2 0 3 0;
#X connect 3 0 4 0;
#X connect 3 0 7 0;
#X connect 3 1 5 0;
#X connect 3 1 6 0;
#X connect 4 0 1 0;
#X connect 5 0 1 0;
#X connect 6 0 0 0;
#X connect 7 0 0 0;
#X restore 45 55 pd gemwin;
#X msg 51 32 destroy;
#X obj 45 107 gemkeyboard;
#X floatatom 45 145 5 0 0 1 keyCode - -;
#X floatatom 45 217 2 0 0 1 state - -;
#X symbolatom 168 218 15 0 0 0 keyName - -;
#X obj 45 178 gemkeyname;
#X connect 0 0 1 0;
#X connect 1 0 0 0;
#X connect 2 0 3 0;
#X connect 6 0 4 0;
#X connect 6 1 5 0;
